<?xml version="1.0" encoding="utf-8"?>
<!-- Generated by IcoMoon.io -->
<!DOCTYPE svg PUBLIC "-//W3C//DTD SVG 1.1//EN" "http://www.w3.org/Graphics/SVG/1.1/DTD/svg11.dtd">
<svg version="1.1" xmlns="http://www.w3.org/2000/svg" xmlns:xlink="http://www.w3.org/1999/xlink" width="656" height="32" viewBox="0 0 656 32">
<g transform="translate(0 0)">
	<path d="M25.143 16.571v5.714q0 2.125-1.509 3.634t-3.634 1.509h-14.857q-2.125 0-3.634-1.509t-1.509-3.634v-14.857q0-2.125 1.509-3.634t3.634-1.509h12.571q0.25 0 0.411 0.161t0.161 0.411v1.143q0 0.25-0.161 0.411t-0.411 0.161h-12.571q-1.179 0-2.018 0.839t-0.839 2.018v14.857q0 1.179 0.839 2.018t2.018 0.839h14.857q1.179 0 2.018-0.839t0.839-2.018v-5.714q0-0.25 0.161-0.411t0.411-0.161h1.143q0.25 0 0.411 0.161t0.161 0.411zM32 1.143v9.143q0 0.464-0.339 0.804t-0.804 0.339-0.804-0.339l-3.143-3.143-11.643 11.643q-0.179 0.179-0.411 0.179t-0.411-0.179l-2.036-2.036q-0.179-0.179-0.179-0.411t0.179-0.411l11.643-11.643-3.143-3.143q-0.339-0.339-0.339-0.804t0.339-0.804 0.804-0.339h9.143q0.464 0 0.804 0.339t0.339 0.804z" />
</g>
<g transform="translate(48 0)">
	<path d="M26.313 18.421c-0.427-0.42-1.372-0.643-2.812-0.662-0.974-0.011-2.147 0.075-3.38 0.248-0.552-0.319-1.122-0.665-1.568-1.083-1.202-1.122-2.205-2.68-2.831-4.394 0.041-0.16 0.075-0.301 0.108-0.444 0 0 0.677-3.846 0.498-5.146-0.025-0.178-0.040-0.23-0.088-0.369l-0.059-0.151c-0.184-0.425-0.545-0.875-1.111-0.85l-0.341-0.011c-0.631 0-1.146 0.323-1.281 0.805-0.411 1.514 0.013 3.778 0.781 6.711l-0.197 0.478c-0.55 1.34-1.238 2.689-1.846 3.88l-0.079 0.155c-0.639 1.251-1.22 2.313-1.745 3.213l-0.543 0.287c-0.040 0.021-0.97 0.513-1.188 0.645-1.852 1.106-3.079 2.361-3.282 3.357-0.065 0.318-0.017 0.725 0.313 0.913l0.525 0.264c0.228 0.114 0.468 0.172 0.714 0.172 1.319 0 2.85-1.643 4.959-5.324 2.435-0.793 5.208-1.452 7.638-1.815 1.852 1.043 4.129 1.767 5.567 1.767 0.255 0 0.475-0.024 0.654-0.072 0.276-0.073 0.508-0.23 0.65-0.444 0.279-0.42 0.335-0.998 0.26-1.59-0.023-0.176-0.163-0.393-0.315-0.541zM6.614 25.439c0.24-0.658 1.192-1.958 2.6-3.111 0.088-0.072 0.306-0.276 0.506-0.466-1.472 2.348-2.458 3.283-3.106 3.577zM14.951 6.24c0.424 0 0.665 1.069 0.685 2.070s-0.214 1.705-0.505 2.225c-0.241-0.77-0.357-1.984-0.357-2.778 0 0-0.018-1.517 0.177-1.517zM12.464 19.922c0.295-0.529 0.603-1.086 0.917-1.677 0.765-1.447 1.249-2.58 1.609-3.511 0.716 1.303 1.608 2.41 2.656 3.297 0.131 0.111 0.269 0.222 0.415 0.333-2.132 0.422-3.974 0.935-5.596 1.558zM25.903 19.802c-0.13 0.081-0.502 0.128-0.741 0.128-0.772 0-1.727-0.353-3.066-0.927 0.515-0.038 0.986-0.057 1.409-0.057 0.774 0 1.004-0.003 1.761 0.19s0.767 0.585 0.637 0.667zM28.232 6.232l-4.465-4.464c-0.972-0.972-2.893-1.768-4.268-1.768h-15c-1.375 0-2.5 1.125-2.5 2.5v27c0 1.375 1.125 2.5 2.5 2.5h23c1.375 0 2.5-1.125 2.5-2.5v-19c0-1.375-0.796-3.296-1.768-4.268zM26.818 7.646c0.098 0.098 0.195 0.218 0.29 0.354h-5.108v-5.108c0.136 0.095 0.256 0.192 0.354 0.29l4.465 4.464zM28 29.5c0 0.271-0.229 0.5-0.5 0.5h-23c-0.271 0-0.5-0.229-0.5-0.5v-27c0-0.271 0.229-0.5 0.5-0.5h15c0.151 0 0.32 0.019 0.5 0.053v7.947h7.947c0.034 0.18 0.053 0.349 0.053 0.5v19z" />
</g>
<g transform="translate(96 0)">
	<path d="M21.569 14.74c-1.896-0.895-4.312-1.076-6.089 0.189 2.161-0.206 4.53 0.151 6.097 1.785 1.5-1.721 3.879-2.044 6.030-1.867-1.796-1.192-4.163-1.032-6.038-0.107zM20.802 18.93c-2.137-0.049-4.201 0.724-5.972 1.878-3.349-1.425-7.585-1.16-10.438 1.218 0.823-0.029 1.625-0.233 2.439-0.337 2.974-0.296 6.143 0.442 8.391 2.494 0.93-1.361 2.239-2.445 3.739-3.123 1.971-0.954 4.192-1.053 6.338-1.079-1.303-0.895-2.957-1.061-4.498-1.052zM28.232 6.232l-4.465-4.464c-0.972-0.972-2.893-1.768-4.268-1.768h-15c-1.375 0-2.5 1.125-2.5 2.5v27c0 1.375 1.125 2.5 2.5 2.5h23c1.375 0 2.5-1.125 2.5-2.5v-19c0-1.375-0.796-3.296-1.768-4.268zM26.818 7.646c0.098 0.098 0.195 0.218 0.29 0.354h-5.108v-5.108c0.136 0.095 0.256 0.192 0.354 0.29l4.465 4.464zM28 29.5c0 0.271-0.229 0.5-0.5 0.5h-23c-0.271 0-0.5-0.229-0.5-0.5v-27c0-0.271 0.229-0.5 0.5-0.5h15c0.151 0 0.32 0.019 0.5 0.053v7.947h7.947c0.034 0.18 0.053 0.349 0.053 0.5v19z" />
</g>
<g transform="translate(144 0)">
	<path d="M19.993 14.872h1.382l-1.594 7.068-2.073-9.938h-3.33l-2.41 9.938-1.807-9.938h-3.481l3.534 15.996h3.401l2.384-9.46 2.133 9.46h3.136l4.051-15.996h-5.326zM28.232 6.232l-4.465-4.464c-0.972-0.972-2.893-1.768-4.268-1.768h-15c-1.375 0-2.5 1.125-2.5 2.5v27c0 1.375 1.125 2.5 2.5 2.5h23c1.375 0 2.5-1.125 2.5-2.5v-19c0-1.375-0.796-3.296-1.768-4.268zM26.818 7.646c0.098 0.098 0.195 0.218 0.29 0.354h-5.108v-5.108c0.136 0.095 0.256 0.192 0.354 0.29l4.465 4.464zM28 29.5c0 0.271-0.229 0.5-0.5 0.5h-23c-0.271 0-0.5-0.229-0.5-0.5v-27c0-0.271 0.229-0.5 0.5-0.5h15c0.151 0 0.32 0.019 0.5 0.053v7.947h7.947c0.034 0.18 0.053 0.349 0.053 0.5v19z" />
</g>
<g transform="translate(192 0)">
	<path d="M23.22 12h-4.228l-2.992 4.407-2.992-4.407h-4.228l5.068 7.577-5.718 8.423h8.195v-2.862h-1.892l1.567-2.344 3.481 5.205h4.389l-5.718-8.423zM28.232 6.232l-4.465-4.464c-0.972-0.972-2.893-1.768-4.268-1.768h-15c-1.375 0-2.5 1.125-2.5 2.5v27c0 1.375 1.125 2.5 2.5 2.5h23c1.375 0 2.5-1.125 2.5-2.5v-19c0-1.375-0.796-3.296-1.768-4.268zM26.818 7.646c0.098 0.098 0.195 0.218 0.29 0.354h-5.108v-5.108c0.136 0.095 0.256 0.192 0.354 0.29l4.465 4.464zM28 29.5c0 0.271-0.229 0.5-0.5 0.5h-23c-0.271 0-0.5-0.229-0.5-0.5v-27c0-0.271 0.229-0.5 0.5-0.5h15c0.151 0 0.32 0.019 0.5 0.053v7.947h7.947c0.034 0.18 0.053 0.349 0.053 0.5v19z" />
</g>
<g transform="translate(240 0)">
	<path d="M19 16c-2.762 0-5 2.239-5 5s2.238 5 5 5c2.761 0 5-2.239 5-5s-2.239-5-5-5zM19 21v-4c2.205 0 4 1.794 4 4h-4zM6 16h6v2h-6zM6 20h6v2h-6zM6 24h6v2h-6zM28.232 6.232l-4.465-4.464c-0.972-0.972-2.893-1.768-4.268-1.768h-15c-1.375 0-2.5 1.125-2.5 2.5v27c0 1.375 1.125 2.5 2.5 2.5h23c1.375 0 2.5-1.125 2.5-2.5v-19c0-1.375-0.796-3.296-1.768-4.268zM26.818 7.646c0.098 0.098 0.195 0.218 0.29 0.354h-5.108v-5.108c0.136 0.095 0.256 0.192 0.354 0.29l4.465 4.464zM28 29.5c0 0.271-0.229 0.5-0.5 0.5h-23c-0.271 0-0.5-0.229-0.5-0.5v-27c0-0.271 0.229-0.5 0.5-0.5h15c0.151 0 0.32 0.019 0.5 0.053v7.947h7.947c0.034 0.18 0.053 0.349 0.053 0.5v19z" />
</g>
<g transform="translate(288 0)">
	<path d="M13 4h3v2h-3zM10 6h3v2h-3zM13 8h3v2h-3zM10 10h3v2h-3zM13 12h3v2h-3zM10 14h3v2h-3zM13 16v2h-3v7c0 0.552 0.448 1 1 1h4c0.552 0 1-0.448 1-1v-9h-3zM15 24h-4v-2h4v2zM28.232 6.232l-4.465-4.464c-0.972-0.972-2.893-1.768-4.268-1.768h-15c-1.375 0-2.5 1.125-2.5 2.5v27c0 1.375 1.125 2.5 2.5 2.5h23c1.375 0 2.5-1.125 2.5-2.5v-19c0-1.375-0.796-3.296-1.768-4.268zM26.818 7.646c0.098 0.098 0.195 0.218 0.29 0.354h-5.108v-5.108c0.136 0.095 0.256 0.192 0.354 0.29l4.465 4.464zM28 29.5c0 0.271-0.229 0.5-0.5 0.5h-23c-0.271 0-0.5-0.229-0.5-0.5v-27c0-0.271 0.229-0.5 0.5-0.5h15c0.151 0 0.32 0.019 0.5 0.053v7.947h7.947c0.034 0.18 0.053 0.349 0.053 0.5v19z" />
</g>
<g transform="translate(336 0)">
	<path d="M14 18l-2-2-6 6 6 6 2-2-4-4zM18 26l2 2 6-6-6-6-2 2 4 4zM28.232 6.232l-4.465-4.464c-0.972-0.972-2.893-1.768-4.268-1.768h-15c-1.375 0-2.5 1.125-2.5 2.5v27c0 1.375 1.125 2.5 2.5 2.5h23c1.375 0 2.5-1.125 2.5-2.5v-19c0-1.375-0.796-3.296-1.768-4.268zM26.818 7.646c0.098 0.098 0.195 0.218 0.29 0.354h-5.108v-5.108c0.136 0.095 0.256 0.192 0.354 0.29l4.465 4.464zM28 29.5c0 0.271-0.229 0.5-0.5 0.5h-23c-0.271 0-0.5-0.229-0.5-0.5v-27c0-0.271 0.229-0.5 0.5-0.5h15c0.151 0 0.32 0.019 0.5 0.053v7.947h7.947c0.034 0.18 0.053 0.349 0.053 0.5v19z" />
</g>
<g transform="translate(384 0)">
	<path d="M12 19.108v-3.57c0-0.473 0.209-0.92 0.589-1.259 0.38-0.339 0.881-0.526 1.411-0.526v-1.785c-2.2 0-4 1.606-4 3.569v2.677c0 0.493-0.448 0.892-1 0.892h-1v1.785h1c0.552 0 1 0.4 1 0.892v2.677c0 1.963 1.8 3.569 4 3.569v-1.785c-0.53 0-1.031-0.187-1.411-0.526-0.38-0.339-0.589-0.786-0.589-1.259v-3.57c0-0.493-0.448-0.892-1-0.892 0.552 0 1-0.4 1-0.892zM20 20.892v3.57c0 0.473-0.209 0.92-0.589 1.259-0.38 0.339-0.881 0.526-1.411 0.526v1.785c2.2 0 4-1.606 4-3.569v-2.677c0-0.493 0.448-0.892 1-0.892h1v-1.785h-1c-0.552 0-1-0.4-1-0.892v-2.677c0-1.963-1.8-3.569-4-3.569v1.785c0.53 0 1.031 0.187 1.411 0.526 0.38 0.339 0.589 0.786 0.589 1.259v3.57c0 0.493 0.448 0.892 1 0.892-0.552-0-1 0.4-1 0.892zM28.232 6.232l-4.465-4.464c-0.972-0.972-2.893-1.768-4.268-1.768h-15c-1.375 0-2.5 1.125-2.5 2.5v27c0 1.375 1.125 2.5 2.5 2.5h23c1.375 0 2.5-1.125 2.5-2.5v-19c0-1.375-0.796-3.296-1.768-4.268zM26.818 7.646c0.098 0.098 0.195 0.218 0.29 0.354h-5.108v-5.108c0.136 0.095 0.256 0.192 0.354 0.29l4.465 4.464zM28 29.5c0 0.271-0.229 0.5-0.5 0.5h-23c-0.271 0-0.5-0.229-0.5-0.5v-27c0-0.271 0.229-0.5 0.5-0.5h15c0.151 0 0.32 0.019 0.5 0.053v7.947h7.947c0.034 0.18 0.053 0.349 0.053 0.5v19z" />
</g>
<g transform="translate(432 0)">
	<path d="M0 6v20h32v-20h-32zM27.667 8l-11.667 8.75-11.667-8.75h23.333zM2 24v-15.25l14 10.5 14-10.5v15.25h-28z" />
</g>
<g transform="translate(480 0)">
	<path d="M16 0c-8.837 0-16 7.163-16 16s7.163 16 16 16 16-7.163 16-16-7.163-16-16-16zM16 28c-1.657 0-3-1.343-3-3s1.343-3 3-3 3 1.343 3 3-1.343 3-3 3zM23.004 11.064c-0.156 0.528-0.372 1.029-0.65 1.5-0.278 0.473-0.612 0.921-1.001 1.342-0.389 0.423-0.816 0.829-1.284 1.218-0.523 0.434-0.942 0.817-1.259 1.151-0.316 0.333-0.53 0.623-0.642 0.867-0.209 0.448-0.366 1.523-0.168 2.857h-3.997c-0.033-2.371 0.316-3.531 0.73-4.391 0.423-0.868 1.211-1.785 2.368-2.752 0.501-0.41 0.89-0.775 1.167-1.092 0.278-0.317 0.49-0.6 0.634-0.85 0.144-0.25 0.233-0.483 0.267-0.701 0.033-0.216 0.050-0.441 0.050-0.675 0-0.434-0.075-0.834-0.225-1.2-0.15-0.368-0.364-0.684-0.642-0.95-0.279-0.268-0.606-0.476-0.984-0.626-0.378-0.15-0.8-0.226-1.267-0.226-1.823 0-2.935 1.273-3.335 3.819h-4.002c0.1-1.090 0.348-2.076 0.742-2.96 0.395-0.884 0.911-1.634 1.551-2.252 0.639-0.617 1.384-1.092 2.235-1.425 0.85-0.334 1.776-0.501 2.776-0.501 1.067 0 2.040 0.153 2.918 0.458 0.879 0.306 1.631 0.732 2.259 1.276 0.629 0.545 1.117 1.195 1.468 1.951 0.349 0.756 0.526 1.579 0.526 2.468-0 0.6-0.079 1.164-0.234 1.693z" />
</g>
<g transform="translate(528 0)">
	<path d="M31.481 26.169l-13.269-22.983c-1.216-2.107-3.207-2.107-4.423 0l-13.269 22.983c-1.216 2.107-0.221 3.831 2.212 3.831h26.539c2.433 0 3.428-1.724 2.212-3.831zM18.5 8l-0.5 12h-4l-0.5-12h5zM16 28c-1.657 0-3-1.343-3-3s1.343-3 3-3 3 1.343 3 3-1.343 3-3 3z" />
</g>
<g transform="translate(576 0)">
	<path d="M16 0c-8.837 0-16 7.163-16 16s7.163 16 16 16 16-7.163 16-16-7.163-16-16-16zM16 4c1.657 0 3 1.343 3 3s-1.343 3-3 3-3-1.343-3-3 1.343-3 3-3zM20 26h-8v-2h2v-10h-2v-2h6v12h2v2z" />
</g>
<g transform="translate(624 0)">
	<path d="M4.259 23.467c-2.35 0-4.259 1.917-4.259 4.252 0 2.349 1.909 4.244 4.259 4.244 2.358 0 4.265-1.895 4.265-4.244-0-2.336-1.907-4.252-4.265-4.252zM0.005 10.873v6.133c3.993 0 7.749 1.562 10.577 4.391 2.825 2.822 4.384 6.595 4.384 10.603h6.16c-0-11.651-9.478-21.127-21.121-21.127zM0.012 0v6.136c14.243 0 25.836 11.604 25.836 25.864h6.152c0-17.64-14.352-32-31.988-32z" />
</g>
</svg>
