<?xml version="1.0" encoding="utf-8"?>
<!-- Generated by IcoMoon.io -->
<!DOCTYPE svg PUBLIC "-//W3C//DTD SVG 1.1//EN" "http://www.w3.org/Graphics/SVG/1.1/DTD/svg11.dtd">
<svg version="1.1" xmlns="http://www.w3.org/2000/svg" xmlns:xlink="http://www.w3.org/1999/xlink" width="496" height="16" viewBox="0 0 496 16">
<g transform="translate(0 0)">
	<path d="M12.571 8.286v2.857q0 1.063-0.754 1.817t-1.817 0.754h-7.429q-1.063 0-1.817-0.754t-0.754-1.817v-7.429q0-1.063 0.754-1.817t1.817-0.754h6.286q0.125 0 0.205 0.080t0.080 0.205v0.571q0 0.125-0.080 0.205t-0.205 0.080h-6.286q-0.589 0-1.009 0.42t-0.42 1.009v7.429q0 0.589 0.42 1.009t1.009 0.42h7.429q0.589 0 1.009-0.42t0.42-1.009v-2.857q0-0.125 0.080-0.205t0.205-0.080h0.571q0.125 0 0.205 0.080t0.080 0.205zM16 0.571v4.571q0 0.232-0.17 0.402t-0.402 0.17-0.402-0.17l-1.571-1.571-5.821 5.821q-0.089 0.089-0.205 0.089t-0.205-0.089l-1.018-1.018q-0.089-0.089-0.089-0.205t0.089-0.205l5.821-5.821-1.571-1.571q-0.17-0.17-0.17-0.402t0.17-0.402 0.402-0.17h4.571q0.232 0 0.402 0.17t0.17 0.402z" />
</g>
<g transform="translate(32 0)">
	<path d="M13.156 9.211c-0.213-0.21-0.686-0.321-1.406-0.331-0.487-0.005-1.073 0.038-1.69 0.124-0.276-0.159-0.561-0.333-0.784-0.542-0.601-0.561-1.103-1.34-1.415-2.197 0.020-0.080 0.038-0.15 0.054-0.222 0 0 0.339-1.923 0.249-2.573-0.012-0.089-0.020-0.115-0.044-0.184l-0.029-0.076c-0.092-0.212-0.273-0.437-0.556-0.425l-0.171-0.005c-0.316 0-0.573 0.161-0.64 0.403-0.205 0.757 0.007 1.889 0.39 3.355l-0.098 0.239c-0.275 0.67-0.619 1.345-0.923 1.94l-0.040 0.077c-0.32 0.626-0.61 1.157-0.873 1.607l-0.271 0.144c-0.020 0.010-0.485 0.257-0.594 0.323-0.926 0.553-1.539 1.18-1.641 1.678-0.032 0.159-0.008 0.362 0.156 0.456l0.263 0.132c0.114 0.057 0.234 0.086 0.357 0.086 0.659 0 1.425-0.821 2.48-2.662 1.218-0.396 2.604-0.726 3.819-0.908 0.926 0.521 2.065 0.884 2.783 0.884 0.128 0 0.238-0.012 0.327-0.036 0.138-0.037 0.254-0.115 0.325-0.222 0.139-0.21 0.168-0.499 0.13-0.795-0.011-0.088-0.081-0.197-0.157-0.271zM3.307 12.72c0.12-0.329 0.596-0.979 1.3-1.556 0.044-0.036 0.153-0.138 0.253-0.233-0.736 1.174-1.229 1.642-1.553 1.788zM7.476 3.12c0.212 0 0.333 0.534 0.343 1.035s-0.107 0.853-0.252 1.113c-0.12-0.385-0.179-0.992-0.179-1.389 0 0-0.009-0.759 0.088-0.759zM6.232 9.961c0.148-0.264 0.301-0.543 0.458-0.839 0.383-0.724 0.624-1.29 0.804-1.755 0.358 0.651 0.804 1.205 1.328 1.649 0.065 0.055 0.135 0.111 0.207 0.166-1.066 0.211-1.987 0.467-2.798 0.779zM12.952 9.901c-0.065 0.041-0.251 0.064-0.37 0.064-0.386 0-0.864-0.176-1.533-0.464 0.257-0.019 0.493-0.029 0.705-0.029 0.387 0 0.502-0.002 0.88 0.095s0.383 0.293 0.319 0.333zM14.116 3.116l-2.232-2.232c-0.486-0.486-1.446-0.884-2.134-0.884h-7.5c-0.688 0-1.25 0.563-1.25 1.25v13.5c0 0.688 0.563 1.25 1.25 1.25h11.5c0.688 0 1.25-0.563 1.25-1.25v-9.5c0-0.688-0.398-1.648-0.884-2.134zM13.409 3.823c0.049 0.049 0.098 0.109 0.145 0.177h-2.554v-2.554c0.068 0.047 0.128 0.096 0.177 0.145l2.232 2.232zM14 14.75c0 0.136-0.114 0.25-0.25 0.25h-11.5c-0.135 0-0.25-0.114-0.25-0.25v-13.5c0-0.135 0.115-0.25 0.25-0.25h7.5c0.075 0 0.16 0.010 0.25 0.027v3.973h3.973c0.017 0.090 0.027 0.174 0.027 0.25v9.5z" />
</g>
<g transform="translate(64 0)">
	<path d="M10.785 7.37c-0.948-0.448-2.156-0.538-3.044 0.095 1.080-0.103 2.265 0.076 3.049 0.893 0.75-0.861 1.939-1.022 3.015-0.933-0.898-0.596-2.082-0.516-3.019-0.054zM10.401 9.465c-1.068-0.025-2.101 0.362-2.986 0.939-1.675-0.712-3.793-0.58-5.219 0.609 0.411-0.015 0.813-0.116 1.22-0.169 1.487-0.148 3.072 0.221 4.196 1.247 0.465-0.68 1.119-1.223 1.87-1.561 0.986-0.477 2.096-0.526 3.169-0.539-0.651-0.448-1.478-0.531-2.249-0.526zM14.116 3.116l-2.232-2.232c-0.486-0.486-1.446-0.884-2.134-0.884h-7.5c-0.688 0-1.25 0.563-1.25 1.25v13.5c0 0.688 0.563 1.25 1.25 1.25h11.5c0.688 0 1.25-0.563 1.25-1.25v-9.5c0-0.688-0.398-1.648-0.884-2.134zM13.409 3.823c0.049 0.049 0.098 0.109 0.145 0.177h-2.554v-2.554c0.068 0.047 0.128 0.096 0.177 0.145l2.232 2.232zM14 14.75c0 0.136-0.114 0.25-0.25 0.25h-11.5c-0.135 0-0.25-0.114-0.25-0.25v-13.5c0-0.135 0.115-0.25 0.25-0.25h7.5c0.075 0 0.16 0.010 0.25 0.027v3.973h3.973c0.017 0.090 0.027 0.174 0.027 0.25v9.5z" />
</g>
<g transform="translate(96 0)">
	<path d="M9.997 7.436h0.691l-0.797 3.534-1.036-4.969h-1.665l-1.205 4.969-0.903-4.969h-1.741l1.767 7.998h1.701l1.192-4.73 1.066 4.73h1.568l2.025-7.998h-2.663zM14.116 3.116l-2.232-2.232c-0.486-0.486-1.446-0.884-2.134-0.884h-7.5c-0.688 0-1.25 0.563-1.25 1.25v13.5c0 0.688 0.563 1.25 1.25 1.25h11.5c0.688 0 1.25-0.563 1.25-1.25v-9.5c0-0.688-0.398-1.648-0.884-2.134zM13.409 3.823c0.049 0.049 0.098 0.109 0.145 0.177h-2.554v-2.554c0.068 0.047 0.128 0.096 0.177 0.145l2.232 2.232zM14 14.75c0 0.136-0.114 0.25-0.25 0.25h-11.5c-0.135 0-0.25-0.114-0.25-0.25v-13.5c0-0.135 0.115-0.25 0.25-0.25h7.5c0.075 0 0.16 0.010 0.25 0.027v3.973h3.973c0.017 0.090 0.027 0.174 0.027 0.25v9.5z" />
</g>
<g transform="translate(128 0)">
	<path d="M11.61 6h-2.114l-1.496 2.204-1.496-2.204h-2.114l2.534 3.788-2.859 4.212h4.097v-1.431h-0.946l0.784-1.172 1.741 2.603h2.194l-2.859-4.212zM14.116 3.116l-2.232-2.232c-0.486-0.486-1.446-0.884-2.134-0.884h-7.5c-0.688 0-1.25 0.563-1.25 1.25v13.5c0 0.688 0.563 1.25 1.25 1.25h11.5c0.688 0 1.25-0.563 1.25-1.25v-9.5c0-0.688-0.398-1.648-0.884-2.134zM13.409 3.823c0.049 0.049 0.098 0.109 0.145 0.177h-2.554v-2.554c0.068 0.047 0.128 0.096 0.177 0.145l2.232 2.232zM14 14.75c0 0.136-0.114 0.25-0.25 0.25h-11.5c-0.135 0-0.25-0.114-0.25-0.25v-13.5c0-0.135 0.115-0.25 0.25-0.25h7.5c0.075 0 0.16 0.010 0.25 0.027v3.973h3.973c0.017 0.090 0.027 0.174 0.027 0.25v9.5z" />
</g>
<g transform="translate(160 0)">
	<path d="M9.5 8c-1.381 0-2.5 1.119-2.5 2.5s1.119 2.5 2.5 2.5c1.381 0 2.5-1.119 2.5-2.5s-1.119-2.5-2.5-2.5zM9.5 10.5v-2c1.103 0 2 0.897 2 2h-2zM3 8h3v1h-3zM3 10h3v1h-3zM3 12h3v1h-3zM14.116 3.116l-2.232-2.232c-0.486-0.486-1.446-0.884-2.134-0.884h-7.5c-0.688 0-1.25 0.563-1.25 1.25v13.5c0 0.688 0.563 1.25 1.25 1.25h11.5c0.688 0 1.25-0.563 1.25-1.25v-9.5c0-0.688-0.398-1.648-0.884-2.134zM13.409 3.823c0.049 0.049 0.098 0.109 0.145 0.177h-2.554v-2.554c0.068 0.047 0.128 0.096 0.177 0.145l2.232 2.232zM14 14.75c0 0.136-0.114 0.25-0.25 0.25h-11.5c-0.135 0-0.25-0.114-0.25-0.25v-13.5c0-0.135 0.115-0.25 0.25-0.25h7.5c0.075 0 0.16 0.010 0.25 0.027v3.973h3.973c0.017 0.090 0.027 0.174 0.027 0.25v9.5z" />
</g>
<g transform="translate(192 0)">
	<path d="M6.5 2h1.5v1h-1.5zM5 3h1.5v1h-1.5zM6.5 4h1.5v1h-1.5zM5 5h1.5v1h-1.5zM6.5 6h1.5v1h-1.5zM5 7h1.5v1h-1.5zM6.5 8v1h-1.5v3.5c0 0.276 0.224 0.5 0.5 0.5h2c0.276 0 0.5-0.224 0.5-0.5v-4.5h-1.5zM7.5 12h-2v-1h2v1zM14.116 3.116l-2.232-2.232c-0.486-0.486-1.446-0.884-2.134-0.884h-7.5c-0.688 0-1.25 0.563-1.25 1.25v13.5c0 0.688 0.563 1.25 1.25 1.25h11.5c0.688 0 1.25-0.563 1.25-1.25v-9.5c0-0.688-0.398-1.648-0.884-2.134zM13.409 3.823c0.049 0.049 0.098 0.109 0.145 0.177h-2.554v-2.554c0.068 0.047 0.128 0.096 0.177 0.145l2.232 2.232zM14 14.75c0 0.136-0.114 0.25-0.25 0.25h-11.5c-0.135 0-0.25-0.114-0.25-0.25v-13.5c0-0.135 0.115-0.25 0.25-0.25h7.5c0.075 0 0.16 0.010 0.25 0.027v3.973h3.973c0.017 0.090 0.027 0.174 0.027 0.25v9.5z" />
</g>
<g transform="translate(224 0)">
	<path d="M7 9l-1-1-3 3 3 3 1-1-2-2zM9 13l1 1 3-3-3-3-1 1 2 2zM14.116 3.116l-2.232-2.232c-0.486-0.486-1.446-0.884-2.134-0.884h-7.5c-0.688 0-1.25 0.563-1.25 1.25v13.5c0 0.688 0.563 1.25 1.25 1.25h11.5c0.688 0 1.25-0.563 1.25-1.25v-9.5c0-0.688-0.398-1.648-0.884-2.134zM13.409 3.823c0.049 0.049 0.098 0.109 0.145 0.177h-2.554v-2.554c0.068 0.047 0.128 0.096 0.177 0.145l2.232 2.232zM14 14.75c0 0.136-0.114 0.25-0.25 0.25h-11.5c-0.135 0-0.25-0.114-0.25-0.25v-13.5c0-0.135 0.115-0.25 0.25-0.25h7.5c0.075 0 0.16 0.010 0.25 0.027v3.973h3.973c0.017 0.090 0.027 0.174 0.027 0.25v9.5z" />
</g>
<g transform="translate(256 0)">
	<path d="M6 9.554v-1.785c0-0.236 0.105-0.46 0.295-0.629 0.19-0.17 0.441-0.263 0.705-0.263v-0.892c-1.1 0-2 0.803-2 1.785v1.339c0 0.246-0.224 0.446-0.5 0.446h-0.5v0.892h0.5c0.276 0 0.5 0.2 0.5 0.446v1.339c0 0.981 0.9 1.785 2 1.785v-0.892c-0.265 0-0.515-0.093-0.705-0.263-0.19-0.17-0.295-0.393-0.295-0.629v-1.785c0-0.246-0.224-0.446-0.5-0.446 0.276 0 0.5-0.2 0.5-0.446zM10 10.446v1.785c0 0.236-0.105 0.46-0.295 0.629-0.19 0.17-0.44 0.263-0.705 0.263v0.892c1.1 0 2-0.803 2-1.785v-1.339c0-0.246 0.224-0.446 0.5-0.446h0.5v-0.892h-0.5c-0.276 0-0.5-0.2-0.5-0.446v-1.339c0-0.982-0.9-1.785-2-1.785v0.892c0.265 0 0.515 0.093 0.705 0.263 0.19 0.17 0.295 0.393 0.295 0.629v1.785c0 0.246 0.224 0.446 0.5 0.446-0.276-0-0.5 0.2-0.5 0.446zM14.116 3.116l-2.232-2.232c-0.486-0.486-1.446-0.884-2.134-0.884h-7.5c-0.688 0-1.25 0.563-1.25 1.25v13.5c0 0.688 0.563 1.25 1.25 1.25h11.5c0.688 0 1.25-0.563 1.25-1.25v-9.5c0-0.688-0.398-1.648-0.884-2.134zM13.409 3.823c0.049 0.049 0.098 0.109 0.145 0.177h-2.554v-2.554c0.068 0.047 0.128 0.096 0.177 0.145l2.232 2.232zM14 14.75c0 0.136-0.114 0.25-0.25 0.25h-11.5c-0.135 0-0.25-0.114-0.25-0.25v-13.5c0-0.135 0.115-0.25 0.25-0.25h7.5c0.075 0 0.16 0.010 0.25 0.027v3.973h3.973c0.017 0.090 0.027 0.174 0.027 0.25v9.5z" />
</g>
<g transform="translate(288 0)">
	<path d="M0 3v10h16v-10h-16zM13.833 4l-5.833 4.375-5.833-4.375h11.667zM1 12v-7.625l7 5.25 7-5.25v7.625h-14z" />
</g>
<g transform="translate(320 0)">
	<path d="M8 0c-4.418 0-8 3.582-8 8s3.582 8 8 8 8-3.582 8-8-3.582-8-8-8zM8 14c-0.828 0-1.5-0.672-1.5-1.5s0.672-1.5 1.5-1.5 1.5 0.672 1.5 1.5-0.672 1.5-1.5 1.5zM11.502 5.532c-0.078 0.264-0.186 0.514-0.325 0.75-0.139 0.236-0.306 0.46-0.501 0.671-0.195 0.212-0.408 0.415-0.642 0.609-0.261 0.217-0.471 0.409-0.63 0.576-0.158 0.166-0.265 0.311-0.321 0.433-0.104 0.224-0.183 0.761-0.084 1.429h-1.999c-0.016-1.186 0.158-1.766 0.365-2.196 0.211-0.434 0.606-0.892 1.184-1.376 0.25-0.205 0.445-0.388 0.584-0.546 0.139-0.158 0.245-0.3 0.317-0.425 0.072-0.125 0.117-0.242 0.133-0.35 0.017-0.108 0.025-0.221 0.025-0.337 0-0.217-0.037-0.417-0.113-0.6-0.075-0.184-0.182-0.342-0.321-0.475-0.139-0.134-0.303-0.238-0.492-0.313-0.189-0.075-0.4-0.113-0.634-0.113-0.911 0-1.467 0.637-1.668 1.91h-2.001c0.050-0.545 0.174-1.038 0.371-1.48 0.197-0.442 0.455-0.817 0.775-1.126 0.32-0.309 0.692-0.546 1.117-0.712 0.425-0.167 0.888-0.25 1.388-0.25 0.534 0 1.020 0.076 1.459 0.229 0.439 0.153 0.816 0.366 1.13 0.638 0.314 0.272 0.559 0.597 0.734 0.975 0.175 0.378 0.263 0.789 0.263 1.234-0 0.3-0.039 0.582-0.117 0.846z" />
</g>
<g transform="translate(352 0)">
	<path d="M15.74 13.085l-6.635-11.492c-0.608-1.053-1.603-1.053-2.212 0l-6.635 11.492c-0.608 1.053-0.111 1.915 1.106 1.915h13.269c1.216 0 1.714-0.862 1.106-1.915zM9.25 4l-0.25 6h-2l-0.25-6h2.5zM8 14c-0.828 0-1.5-0.672-1.5-1.5s0.672-1.5 1.5-1.5 1.5 0.672 1.5 1.5-0.672 1.5-1.5 1.5z" />
</g>
<g transform="translate(384 0)">
	<path d="M8 0c-4.418 0-8 3.582-8 8s3.582 8 8 8 8-3.582 8-8-3.582-8-8-8zM8 2c0.828 0 1.5 0.672 1.5 1.5s-0.672 1.5-1.5 1.5-1.5-0.672-1.5-1.5 0.672-1.5 1.5-1.5zM10 13h-4v-1h1v-5h-1v-1h3v6h1v1z" />
</g>
<g transform="translate(416 0)">
	<path d="M2.13 11.733c-1.175 0-2.13 0.958-2.13 2.126 0 1.174 0.955 2.122 2.13 2.122 1.179 0 2.133-0.948 2.133-2.122-0-1.168-0.954-2.126-2.133-2.126zM0.002 5.436v3.067c1.997 0 3.874 0.781 5.288 2.196 1.412 1.411 2.192 3.297 2.192 5.302h3.080c-0-5.825-4.739-10.564-10.56-10.564zM0.006 0v3.068c7.122 0 12.918 5.802 12.918 12.932h3.076c0-8.82-7.176-16-15.994-16z" />
</g>
<g transform="translate(448 0)">
	<path d="M8.354 0.354c-0.194-0.194-0.579-0.354-0.854-0.354h-6c-0.275 0-0.5 0.225-0.5 0.5v15c0 0.275 0.225 0.5 0.5 0.5h12c0.275 0 0.5-0.225 0.5-0.5v-9c0-0.275-0.159-0.659-0.354-0.854l-5.293-5.293zM13 15h-11v-14h5.487c0.046 0.008 0.131 0.043 0.169 0.070l5.274 5.274c0.027 0.038 0.062 0.123 0.070 0.169v8.487zM13.5 0h-3c-0.275 0-0.341 0.159-0.146 0.354l3.293 3.293c0.194 0.194 0.354 0.129 0.354-0.146v-3c0-0.275-0.225-0.5-0.5-0.5z" />
</g>
<g transform="translate(480 0)">
	<path d="M11 0h-10v16h14v-12l-4-4zM14 15h-12v-14h9v3h3v11zM4 12h8v1h-8zM4 10h8v1h-8zM4 8h8v1h-8z" />
</g>
</svg>
