<?xml version="1.0" encoding="utf-8"?>
<!-- Generated by IcoMoon.io -->
<!DOCTYPE svg PUBLIC "-//W3C//DTD SVG 1.1//EN" "http://www.w3.org/Graphics/SVG/1.1/DTD/svg11.dtd">
<svg version="1.1" xmlns="http://www.w3.org/2000/svg" xmlns:xlink="http://www.w3.org/1999/xlink" width="1264" height="64" viewBox="0 0 1264 64">
<g transform="translate(0 0)">
	<path d="M50.286 33.143v11.429q0 4.25-3.018 7.268t-7.268 3.018h-29.714q-4.25 0-7.268-3.018t-3.018-7.268v-29.714q0-4.25 3.018-7.268t7.268-3.018h25.143q0.5 0 0.821 0.321t0.321 0.821v2.286q0 0.5-0.321 0.821t-0.821 0.321h-25.143q-2.357 0-4.036 1.679t-1.679 4.036v29.714q0 2.357 1.679 4.036t4.036 1.679h29.714q2.357 0 4.036-1.679t1.679-4.036v-11.429q0-0.5 0.321-0.821t0.821-0.321h2.286q0.5 0 0.821 0.321t0.321 0.821zM64 2.286v18.286q0 0.929-0.679 1.607t-1.607 0.679-1.607-0.679l-6.286-6.286-23.286 23.286q-0.357 0.357-0.821 0.357t-0.821-0.357l-4.071-4.071q-0.357-0.357-0.357-0.821t0.357-0.821l23.286-23.286-6.286-6.286q-0.679-0.679-0.679-1.607t0.679-1.607 1.607-0.679h18.286q0.929 0 1.607 0.679t0.679 1.607z" />
</g>
<g transform="translate(80 0)">
	<path d="M52.626 36.843c-0.853-0.84-2.745-1.285-5.623-1.323-1.949-0.022-4.294 0.15-6.761 0.495-1.105-0.637-2.243-1.331-3.137-2.166-2.404-2.245-4.41-5.361-5.661-8.787 0.081-0.32 0.151-0.601 0.215-0.888 0 0 1.354-7.691 0.996-10.292-0.049-0.357-0.080-0.46-0.175-0.737l-0.118-0.302c-0.369-0.85-1.090-1.75-2.223-1.7l-0.682-0.021c-1.262 0-2.291 0.646-2.562 1.611-0.821 3.027 0.026 7.556 1.561 13.421l-0.393 0.955c-1.099 2.68-2.477 5.379-3.692 7.76l-0.158 0.309c-1.279 2.502-2.439 4.627-3.491 6.426l-1.086 0.574c-0.079 0.042-1.94 1.026-2.377 1.29-3.704 2.211-6.158 4.721-6.565 6.714-0.13 0.636-0.033 1.449 0.626 1.826l1.050 0.529c0.456 0.228 0.936 0.344 1.428 0.344 2.638 0 5.7-3.286 9.918-10.648 4.871-1.586 10.416-2.904 15.276-3.631 3.704 2.086 8.259 3.534 11.134 3.534 0.511 0 0.951-0.049 1.308-0.144 0.551-0.146 1.016-0.46 1.3-0.887 0.558-0.84 0.671-1.996 0.52-3.18-0.045-0.352-0.326-0.786-0.629-1.083zM13.228 50.878c0.481-1.315 2.385-3.915 5.2-6.222 0.177-0.144 0.613-0.552 1.012-0.931-2.944 4.695-4.915 6.567-6.212 7.154zM29.902 12.48c0.848 0 1.33 2.137 1.37 4.141s-0.429 3.41-1.010 4.451c-0.481-1.541-0.714-3.969-0.714-5.556 0 0-0.035-3.035 0.354-3.035zM24.928 39.843c0.591-1.057 1.205-2.172 1.833-3.355 1.531-2.895 2.497-5.16 3.217-7.022 1.432 2.605 3.215 4.82 5.312 6.594 0.261 0.221 0.539 0.444 0.83 0.666-4.263 0.843-7.948 1.869-11.192 3.116zM51.806 39.603c-0.26 0.162-1.003 0.256-1.482 0.256-1.544 0-3.455-0.706-6.133-1.854 1.029-0.076 1.973-0.115 2.819-0.115 1.549 0 2.008-0.007 3.522 0.38s1.534 1.171 1.274 1.333zM56.465 12.464l-8.929-8.929c-1.944-1.944-5.785-3.535-8.535-3.535h-30c-2.75 0-5 2.25-5 5v54c0 2.75 2.25 5 5 5h46c2.75 0 5-2.25 5-5v-38c0-2.75-1.591-6.591-3.535-8.536zM53.636 15.293c0.196 0.196 0.391 0.436 0.58 0.707h-10.216v-10.216c0.271 0.189 0.511 0.384 0.707 0.58l8.929 8.929zM56 59c0 0.542-0.458 1-1 1h-46c-0.542 0-1-0.458-1-1v-54c0-0.542 0.458-1 1-1h30c0.302 0 0.641 0.038 1 0.106v15.893h15.894c0.068 0.359 0.106 0.698 0.106 1v38z" />
</g>
<g transform="translate(160 0)">
	<path d="M43.139 29.48c-3.792-1.791-8.623-2.151-12.177 0.378 4.321-0.413 9.060 0.302 12.194 3.57 3-3.442 7.757-4.088 12.060-3.733-3.593-2.384-8.326-2.064-12.077-0.215zM41.603 37.859c-4.274-0.099-8.402 1.448-11.944 3.757-6.698-2.849-15.171-2.32-20.875 2.436 1.646-0.058 3.25-0.465 4.878-0.675 5.949-0.593 12.287 0.884 16.782 4.989 1.861-2.721 4.478-4.89 7.478-6.245 3.942-1.907 8.385-2.105 12.676-2.157-2.605-1.791-5.913-2.122-8.996-2.105zM56.465 12.464l-8.929-8.929c-1.944-1.944-5.785-3.535-8.535-3.535h-30c-2.75 0-5 2.25-5 5v54c0 2.75 2.25 5 5 5h46c2.75 0 5-2.25 5-5v-38c0-2.75-1.591-6.591-3.535-8.536zM53.636 15.293c0.196 0.196 0.391 0.436 0.58 0.707h-10.216v-10.216c0.271 0.189 0.511 0.384 0.707 0.58l8.929 8.929zM56 59c0 0.542-0.458 1-1 1h-46c-0.542 0-1-0.458-1-1v-54c0-0.542 0.458-1 1-1h30c0.302 0 0.641 0.038 1 0.106v15.893h15.894c0.068 0.359 0.106 0.698 0.106 1v38z" />
</g>
<g transform="translate(240 0)">
	<path d="M39.986 29.743h2.763l-3.188 14.136-4.145-19.876h-6.659l-4.82 19.876-3.614-19.876h-6.962l7.068 31.993h6.802l4.768-18.919 4.266 18.919h6.271l8.102-31.993h-10.653zM56.465 12.464l-8.929-8.929c-1.944-1.944-5.785-3.535-8.535-3.535h-30c-2.75 0-5 2.25-5 5v54c0 2.75 2.25 5 5 5h46c2.75 0 5-2.25 5-5v-38c0-2.75-1.591-6.591-3.535-8.536zM53.636 15.293c0.196 0.196 0.391 0.436 0.58 0.707h-10.216v-10.216c0.271 0.189 0.511 0.384 0.707 0.58l8.929 8.929zM56 59c0 0.542-0.458 1-1 1h-46c-0.542 0-1-0.458-1-1v-54c0-0.542 0.458-1 1-1h30c0.302 0 0.641 0.038 1 0.106v15.893h15.894c0.068 0.359 0.106 0.698 0.106 1v38z" />
</g>
<g transform="translate(320 0)">
	<path d="M46.439 24h-8.456l-5.983 8.815-5.984-8.815h-8.456l10.135 15.154-11.436 16.846h16.39v-5.724h-3.785l3.135-4.687 6.962 10.411h8.778l-11.436-16.846zM56.465 12.464l-8.929-8.929c-1.944-1.944-5.785-3.535-8.535-3.535h-30c-2.75 0-5 2.25-5 5v54c0 2.75 2.25 5 5 5h46c2.75 0 5-2.25 5-5v-38c0-2.75-1.591-6.591-3.535-8.536zM53.636 15.293c0.196 0.196 0.391 0.436 0.58 0.707h-10.216v-10.216c0.271 0.189 0.511 0.384 0.707 0.58l8.929 8.929zM56 59c0 0.542-0.458 1-1 1h-46c-0.542 0-1-0.458-1-1v-54c0-0.542 0.458-1 1-1h30c0.302 0 0.641 0.038 1 0.106v15.893h15.894c0.068 0.359 0.106 0.698 0.106 1v38z" />
</g>
<g transform="translate(400 0)">
	<path d="M38 32c-5.523 0-10 4.477-10 10s4.477 10 10 10c5.523 0 10-4.477 10-10s-4.477-10-10-10zM38 42v-8c4.411 0 8 3.589 8 8h-8zM12 32h12v4h-12zM12 40h12v4h-12zM12 48h12v4h-12zM56.465 12.464l-8.929-8.929c-1.944-1.944-5.785-3.535-8.535-3.535h-30c-2.75 0-5 2.25-5 5v54c0 2.75 2.25 5 5 5h46c2.75 0 5-2.25 5-5v-38c0-2.75-1.591-6.591-3.535-8.536zM53.636 15.293c0.196 0.196 0.391 0.436 0.58 0.707h-10.216v-10.216c0.271 0.189 0.511 0.384 0.707 0.58l8.929 8.929zM56 59c0 0.542-0.458 1-1 1h-46c-0.542 0-1-0.458-1-1v-54c0-0.542 0.458-1 1-1h30c0.302 0 0.641 0.038 1 0.106v15.893h15.894c0.068 0.359 0.106 0.698 0.106 1v38z" />
</g>
<g transform="translate(480 0)">
	<path d="M26 8h6v4h-6zM20 12h6v4h-6zM26 16h6v4h-6zM20 20h6v4h-6zM26 24h6v4h-6zM20 28h6v4h-6zM26 32v4h-6v14c0 1.105 0.895 2 2 2h8c1.105 0 2-0.895 2-2v-18h-6zM30 48h-8v-4h8v4zM56.465 12.464l-8.929-8.929c-1.944-1.944-5.785-3.535-8.535-3.535h-30c-2.75 0-5 2.25-5 5v54c0 2.75 2.25 5 5 5h46c2.75 0 5-2.25 5-5v-38c0-2.75-1.591-6.591-3.535-8.536zM53.636 15.293c0.196 0.196 0.391 0.436 0.58 0.707h-10.216v-10.216c0.271 0.189 0.511 0.384 0.707 0.58l8.929 8.929zM56 59c0 0.542-0.458 1-1 1h-46c-0.542 0-1-0.458-1-1v-54c0-0.542 0.458-1 1-1h30c0.302 0 0.641 0.038 1 0.106v15.893h15.894c0.068 0.359 0.106 0.698 0.106 1v38z" />
</g>
<g transform="translate(560 0)">
	<path d="M28 36l-4-4-12 12 12 12 4-4-8-8zM36 52l4 4 12-12-12-12-4 4 8 8zM56.465 12.464l-8.929-8.929c-1.944-1.944-5.785-3.535-8.535-3.535h-30c-2.75 0-5 2.25-5 5v54c0 2.75 2.25 5 5 5h46c2.75 0 5-2.25 5-5v-38c0-2.75-1.591-6.591-3.535-8.536zM53.636 15.293c0.196 0.196 0.391 0.436 0.58 0.707h-10.216v-10.216c0.271 0.189 0.511 0.384 0.707 0.58l8.929 8.929zM56 59c0 0.542-0.458 1-1 1h-46c-0.542 0-1-0.458-1-1v-54c0-0.542 0.458-1 1-1h30c0.302 0 0.641 0.038 1 0.106v15.893h15.894c0.068 0.359 0.106 0.698 0.106 1v38z" />
</g>
<g transform="translate(640 0)">
	<path d="M24 38.215v-7.139c0-0.945 0.419-1.84 1.178-2.518 0.76-0.678 1.762-1.052 2.822-1.052v-3.569c-4.4 0-8 3.212-8 7.139v5.354c0 0.986-0.895 1.785-2 1.785h-2v3.569h2c1.105 0 2 0.799 2 1.785v5.355c0 3.926 3.6 7.138 8 7.138v-3.569c-1.060 0-2.062-0.373-2.822-1.052-0.76-0.678-1.178-1.572-1.178-2.517v-7.14c0-0.986-0.895-1.785-2-1.785 1.105 0 2-0.799 2-1.785zM40 41.785v7.14c0 0.945-0.419 1.839-1.178 2.517-0.76 0.678-1.762 1.052-2.822 1.052v3.569c4.4 0 8-3.212 8-7.138v-5.355c0-0.986 0.895-1.785 2-1.785h2v-3.569h-2c-1.105 0-2-0.799-2-1.785v-5.354c0-3.927-3.6-7.139-8-7.139v3.569c1.060 0 2.062 0.374 2.822 1.052 0.76 0.678 1.178 1.572 1.178 2.518v7.139c0 0.985 0.895 1.785 2 1.785-1.105-0-2 0.799-2 1.785zM56.465 12.464l-8.929-8.929c-1.944-1.944-5.785-3.535-8.535-3.535h-30c-2.75 0-5 2.25-5 5v54c0 2.75 2.25 5 5 5h46c2.75 0 5-2.25 5-5v-38c0-2.75-1.591-6.591-3.535-8.536zM53.636 15.293c0.196 0.196 0.391 0.436 0.58 0.707h-10.216v-10.216c0.271 0.189 0.511 0.384 0.707 0.58l8.929 8.929zM56 59c0 0.542-0.458 1-1 1h-46c-0.542 0-1-0.458-1-1v-54c0-0.542 0.458-1 1-1h30c0.302 0 0.641 0.038 1 0.106v15.893h15.894c0.068 0.359 0.106 0.698 0.106 1v38z" />
</g>
<g transform="translate(720 0)">
	<path d="M0 12v40h64v-40h-64zM55.333 16l-23.333 17.5-23.333-17.5h46.667zM4 48v-30.5l28 21 28-21v30.5h-56z" />
</g>
<g transform="translate(800 0)">
	<path d="M32 0c-17.673 0-32 14.327-32 32s14.327 32 32 32 32-14.327 32-32-14.327-32-32-32zM32 56c-3.314 0-6-2.686-6-6s2.686-6 6-6 6 2.686 6 6-2.686 6-6 6zM46.008 22.129c-0.312 1.056-0.745 2.057-1.301 3.001-0.556 0.946-1.224 1.841-2.002 2.684-0.779 0.846-1.633 1.658-2.568 2.436-1.045 0.867-1.885 1.634-2.518 2.302-0.632 0.666-1.061 1.246-1.284 1.733-0.417 0.897-0.732 3.045-0.336 5.715h-7.995c-0.066-4.742 0.632-7.063 1.461-8.782 0.846-1.736 2.422-3.569 4.736-5.504 1.001-0.821 1.779-1.551 2.334-2.185 0.556-0.633 0.98-1.2 1.268-1.7 0.288-0.5 0.466-0.967 0.534-1.401 0.066-0.433 0.099-0.882 0.099-1.35 0-0.867-0.15-1.667-0.45-2.401-0.3-0.735-0.728-1.367-1.283-1.9-0.557-0.535-1.212-0.952-1.968-1.253-0.756-0.3-1.6-0.451-2.535-0.451-3.645 0-5.869 2.546-6.671 7.638h-8.003c0.2-2.18 0.695-4.151 1.485-5.919 0.789-1.769 1.822-3.269 3.102-4.503 1.279-1.235 2.768-2.184 4.469-2.849 1.7-0.667 3.551-1.002 5.552-1.002 2.135 0 4.080 0.305 5.837 0.917 1.757 0.612 3.263 1.464 4.518 2.553 1.257 1.089 2.234 2.39 2.935 3.901 0.699 1.513 1.051 3.158 1.051 4.936-0 1.2-0.157 2.329-0.468 3.385z" />
</g>
<g transform="translate(880 0)">
	<path d="M62.962 52.339l-26.539-45.967c-2.433-4.214-6.413-4.214-8.846 0l-26.539 45.967c-2.433 4.214-0.442 7.661 4.423 7.661h53.077c4.865 0 6.856-3.447 4.423-7.661zM37 16l-1 24h-8l-1-24h10zM32 56c-3.314 0-6-2.686-6-6s2.686-6 6-6 6 2.686 6 6-2.686 6-6 6z" />
</g>
<g transform="translate(960 0)">
	<path d="M32 0c-17.673 0-32 14.327-32 32s14.327 32 32 32 32-14.327 32-32-14.327-32-32-32zM32 8c3.314 0 6 2.686 6 6s-2.686 6-6 6-6-2.686-6-6 2.686-6 6-6zM40 52h-16v-4h4v-20h-4v-4h12v24h4v4z" />
</g>
<g transform="translate(1040 0)">
	<path d="M8.518 46.933c-4.7 0-8.518 3.833-8.518 8.505 0 4.697 3.819 8.488 8.518 8.488 4.717 0 8.531-3.791 8.531-8.488-0-4.671-3.814-8.505-8.531-8.505zM0.010 21.746v12.266c7.987 0 15.497 3.123 21.154 8.782 5.649 5.645 8.768 13.19 8.768 21.206h12.32c-0-23.301-18.955-42.254-42.241-42.254zM0.024 0v12.272c28.486 0 51.672 23.208 51.672 51.728h12.303c0-35.279-28.703-64-63.976-64z" />
</g>
<g transform="translate(1120 0)">
	<path d="M33.414 1.414c-0.778-0.778-2.314-1.414-3.414-1.414h-24c-1.1 0-2 0.9-2 2v60c0 1.1 0.9 2 2 2h48c1.1 0 2-0.9 2-2v-36c0-1.1-0.636-2.636-1.414-3.414l-21.172-21.172zM52 60h-44v-56h21.947c0.182 0.030 0.526 0.172 0.676 0.28l21.097 21.097c0.108 0.15 0.25 0.493 0.28 0.676v33.947zM54 0h-12c-1.1 0-1.364 0.636-0.586 1.414l13.172 13.172c0.778 0.778 1.414 0.514 1.414-0.586v-12c0-1.1-0.9-2-2-2z" />
</g>
<g transform="translate(1200 0)">
	<path d="M44 0h-40v64h56v-48l-16-16zM56 60h-48v-56h36v12h12v44zM16 48h32v4h-32zM16 40h32v4h-32zM16 32h32v4h-32z" />
</g>
</svg>
