<?xml version="1.0" encoding="utf-8"?>
<!-- Generated by IcoMoon.io -->
<!DOCTYPE svg PUBLIC "-//W3C//DTD SVG 1.1//EN" "http://www.w3.org/Graphics/SVG/1.1/DTD/svg11.dtd">
<svg version="1.1" xmlns="http://www.w3.org/2000/svg" xmlns:xlink="http://www.w3.org/1999/xlink" width="32" height="32" viewBox="0 0 32 32">
	<path d="M16 0c-8.837 0-16 7.163-16 16s7.163 16 16 16 16-7.163 16-16-7.163-16-16-16zM16 28c-1.657 0-3-1.343-3-3s1.343-3 3-3 3 1.343 3 3-1.343 3-3 3zM23.004 11.064c-0.156 0.528-0.372 1.029-0.65 1.5-0.278 0.473-0.612 0.921-1.001 1.342-0.389 0.423-0.816 0.829-1.284 1.218-0.523 0.434-0.942 0.817-1.259 1.151-0.316 0.333-0.53 0.623-0.642 0.867-0.209 0.448-0.366 1.523-0.168 2.857h-3.997c-0.033-2.371 0.316-3.531 0.73-4.391 0.423-0.868 1.211-1.785 2.368-2.752 0.501-0.41 0.89-0.775 1.167-1.092 0.278-0.317 0.49-0.6 0.634-0.85 0.144-0.25 0.233-0.483 0.267-0.701 0.033-0.216 0.050-0.441 0.050-0.675 0-0.434-0.075-0.834-0.225-1.2-0.15-0.368-0.364-0.684-0.642-0.95-0.279-0.268-0.606-0.476-0.984-0.626-0.378-0.15-0.8-0.226-1.267-0.226-1.823 0-2.935 1.273-3.335 3.819h-4.002c0.1-1.090 0.348-2.076 0.742-2.96 0.395-0.884 0.911-1.634 1.551-2.252 0.639-0.617 1.384-1.092 2.235-1.425 0.85-0.334 1.776-0.501 2.776-0.501 1.067 0 2.040 0.153 2.918 0.458 0.879 0.306 1.631 0.732 2.259 1.276 0.629 0.545 1.117 1.195 1.468 1.951 0.349 0.756 0.526 1.579 0.526 2.468-0 0.6-0.079 1.164-0.234 1.693z" />
</svg>
