<?xml version="1.0" encoding="utf-8"?>
<!-- Generated by IcoMoon.io -->
<!DOCTYPE svg PUBLIC "-//W3C//DTD SVG 1.1//EN" "http://www.w3.org/Graphics/SVG/1.1/DTD/svg11.dtd">
<svg version="1.1" xmlns="http://www.w3.org/2000/svg" xmlns:xlink="http://www.w3.org/1999/xlink" width="1008" height="48" viewBox="0 0 1008 48">
<g transform="translate(0 0)">
	<path d="M37.714 24.857v8.571q0 3.188-2.263 5.451t-5.451 2.263h-22.286q-3.188 0-5.451-2.263t-2.263-5.451v-22.286q0-3.188 2.263-5.451t5.451-2.263h18.857q0.375 0 0.616 0.241t0.241 0.616v1.714q0 0.375-0.241 0.616t-0.616 0.241h-18.857q-1.768 0-3.027 1.259t-1.259 3.027v22.286q0 1.768 1.259 3.027t3.027 1.259h22.286q1.768 0 3.027-1.259t1.259-3.027v-8.571q0-0.375 0.241-0.616t0.616-0.241h1.714q0.375 0 0.616 0.241t0.241 0.616zM48 1.714v13.714q0 0.696-0.509 1.205t-1.205 0.509-1.205-0.509l-4.714-4.714-17.464 17.464q-0.268 0.268-0.616 0.268t-0.616-0.268l-3.054-3.054q-0.268-0.268-0.268-0.616t0.268-0.616l17.464-17.464-4.714-4.714q-0.509-0.509-0.509-1.205t0.509-1.205 1.205-0.509h13.714q0.696 0 1.205 0.509t0.509 1.205z" />
</g>
<g transform="translate(64 0)">
	<path d="M39.469 27.632c-0.64-0.63-2.058-0.964-4.217-0.992-1.461-0.016-3.22 0.113-5.070 0.372-0.828-0.478-1.682-0.998-2.353-1.625-1.803-1.684-3.308-4.021-4.246-6.59 0.061-0.24 0.113-0.451 0.162-0.666 0 0 1.016-5.768 0.747-7.719-0.037-0.267-0.060-0.345-0.132-0.553l-0.088-0.227c-0.276-0.637-0.818-1.312-1.667-1.275l-0.512-0.016c-0.947 0-1.719 0.484-1.921 1.208-0.616 2.27 0.020 5.667 1.171 10.066l-0.295 0.717c-0.824 2.010-1.858 4.034-2.769 5.82l-0.119 0.232c-0.959 1.877-1.829 3.47-2.618 4.82l-0.814 0.431c-0.059 0.031-1.455 0.77-1.783 0.968-2.778 1.659-4.618 3.541-4.924 5.035-0.097 0.477-0.025 1.087 0.469 1.369l0.788 0.396c0.342 0.171 0.702 0.258 1.071 0.258 1.978 0 4.275-2.464 7.439-7.986 3.653-1.189 7.812-2.178 11.457-2.723 2.778 1.564 6.194 2.651 8.35 2.651 0.383 0 0.713-0.036 0.981-0.108 0.414-0.11 0.762-0.345 0.975-0.665 0.418-0.63 0.503-1.497 0.39-2.385-0.034-0.264-0.244-0.59-0.472-0.812zM9.921 38.159c0.361-0.986 1.789-2.936 3.9-4.667 0.133-0.108 0.46-0.414 0.759-0.699-2.208 3.521-3.687 4.925-4.659 5.365zM22.427 9.36c0.636 0 0.998 1.603 1.028 3.106 0.030 1.503-0.321 2.558-0.757 3.338-0.361-1.155-0.536-2.977-0.536-4.167 0 0-0.027-2.276 0.265-2.276zM18.696 29.883c0.443-0.793 0.904-1.629 1.375-2.516 1.148-2.171 1.873-3.87 2.413-5.266 1.074 1.954 2.411 3.615 3.984 4.946 0.196 0.166 0.404 0.333 0.622 0.499-3.197 0.633-5.961 1.402-8.394 2.337zM38.855 29.702c-0.195 0.122-0.753 0.192-1.111 0.192-1.158 0-2.591-0.529-4.6-1.391 0.772-0.057 1.479-0.086 2.114-0.086 1.162 0 1.506-0.005 2.641 0.285s1.15 0.878 0.956 1zM42.348 9.348l-6.697-6.697c-1.458-1.458-4.339-2.652-6.402-2.652h-22.5c-2.063 0-3.75 1.688-3.75 3.75v40.5c0 2.063 1.688 3.75 3.75 3.75h34.5c2.063 0 3.75-1.688 3.75-3.75v-28.5c0-2.063-1.193-4.943-2.652-6.402zM40.227 11.47c0.147 0.147 0.293 0.327 0.435 0.53h-7.662v-7.662c0.203 0.142 0.384 0.288 0.53 0.435l6.697 6.697zM42 44.25c0 0.407-0.343 0.75-0.75 0.75h-34.5c-0.406 0-0.75-0.343-0.75-0.75v-40.5c0-0.406 0.344-0.75 0.75-0.75h22.5c0.227 0 0.481 0.029 0.75 0.080v11.92h11.92c0.051 0.269 0.080 0.523 0.080 0.75v28.5z" />
</g>
<g transform="translate(128 0)">
	<path d="M32.354 22.11c-2.844-1.343-6.467-1.613-9.133 0.284 3.241-0.31 6.795 0.227 9.146 2.678 2.25-2.582 5.818-3.066 9.045-2.8-2.695-1.788-6.245-1.548-9.058-0.161zM31.202 28.395c-3.205-0.074-6.302 1.086-8.958 2.817-5.024-2.137-11.378-1.74-15.656 1.827 1.234-0.044 2.438-0.349 3.659-0.506 4.462-0.445 9.215 0.663 12.586 3.742 1.396-2.041 3.358-3.668 5.609-4.684 2.957-1.431 6.289-1.579 9.507-1.618-1.954-1.343-4.435-1.592-6.747-1.579zM42.348 9.348l-6.697-6.697c-1.458-1.458-4.339-2.652-6.402-2.652h-22.5c-2.063 0-3.75 1.688-3.75 3.75v40.5c0 2.063 1.688 3.75 3.75 3.75h34.5c2.063 0 3.75-1.688 3.75-3.75v-28.5c0-2.063-1.193-4.943-2.652-6.402zM40.227 11.47c0.147 0.147 0.293 0.327 0.435 0.53h-7.662v-7.662c0.203 0.142 0.384 0.288 0.53 0.435l6.697 6.697zM42 44.25c0 0.407-0.343 0.75-0.75 0.75h-34.5c-0.406 0-0.75-0.343-0.75-0.75v-40.5c0-0.406 0.344-0.75 0.75-0.75h22.5c0.227 0 0.481 0.029 0.75 0.080v11.92h11.92c0.051 0.269 0.080 0.523 0.080 0.75v28.5z" />
</g>
<g transform="translate(192 0)">
	<path d="M29.99 22.307h2.072l-2.391 10.602-3.109-14.907h-4.995l-3.615 14.907-2.71-14.907h-5.222l5.301 23.994h5.102l3.576-14.189 3.2 14.189h4.703l6.076-23.994h-7.99zM42.348 9.348l-6.697-6.697c-1.458-1.458-4.339-2.652-6.402-2.652h-22.5c-2.063 0-3.75 1.688-3.75 3.75v40.5c0 2.063 1.688 3.75 3.75 3.75h34.5c2.063 0 3.75-1.688 3.75-3.75v-28.5c0-2.063-1.193-4.943-2.652-6.402zM40.227 11.47c0.147 0.147 0.293 0.327 0.435 0.53h-7.662v-7.662c0.203 0.142 0.384 0.288 0.53 0.435l6.697 6.697zM42 44.25c0 0.407-0.343 0.75-0.75 0.75h-34.5c-0.406 0-0.75-0.343-0.75-0.75v-40.5c0-0.406 0.344-0.75 0.75-0.75h22.5c0.227 0 0.481 0.029 0.75 0.080v11.92h11.92c0.051 0.269 0.080 0.523 0.080 0.75v28.5z" />
</g>
<g transform="translate(256 0)">
	<path d="M34.829 18h-6.342l-4.487 6.611-4.488-6.611h-6.342l7.601 11.365-8.577 12.635h12.292v-4.293h-2.839l2.351-3.515 5.222 7.808h6.583l-8.577-12.635zM42.348 9.348l-6.697-6.697c-1.458-1.458-4.339-2.652-6.402-2.652h-22.5c-2.063 0-3.75 1.688-3.75 3.75v40.5c0 2.063 1.688 3.75 3.75 3.75h34.5c2.063 0 3.75-1.688 3.75-3.75v-28.5c0-2.063-1.193-4.943-2.652-6.402zM40.227 11.47c0.147 0.147 0.293 0.327 0.435 0.53h-7.662v-7.662c0.203 0.142 0.384 0.288 0.53 0.435l6.697 6.697zM42 44.25c0 0.407-0.343 0.75-0.75 0.75h-34.5c-0.406 0-0.75-0.343-0.75-0.75v-40.5c0-0.406 0.344-0.75 0.75-0.75h22.5c0.227 0 0.481 0.029 0.75 0.080v11.92h11.92c0.051 0.269 0.080 0.523 0.080 0.75v28.5z" />
</g>
<g transform="translate(320 0)">
	<path d="M28.5 24c-4.143 0-7.5 3.358-7.5 7.5s3.358 7.5 7.5 7.5c4.142 0 7.5-3.358 7.5-7.5s-3.358-7.5-7.5-7.5zM28.5 31.5v-6c3.308 0 6 2.692 6 6h-6zM9 24h9v3h-9zM9 30h9v3h-9zM9 36h9v3h-9zM42.348 9.348l-6.697-6.697c-1.458-1.458-4.339-2.652-6.402-2.652h-22.5c-2.063 0-3.75 1.688-3.75 3.75v40.5c0 2.063 1.688 3.75 3.75 3.75h34.5c2.063 0 3.75-1.688 3.75-3.75v-28.5c0-2.063-1.193-4.943-2.652-6.402zM40.227 11.47c0.147 0.147 0.293 0.327 0.435 0.53h-7.662v-7.662c0.203 0.142 0.384 0.288 0.53 0.435l6.697 6.697zM42 44.25c0 0.407-0.343 0.75-0.75 0.75h-34.5c-0.406 0-0.75-0.343-0.75-0.75v-40.5c0-0.406 0.344-0.75 0.75-0.75h22.5c0.227 0 0.481 0.029 0.75 0.080v11.92h11.92c0.051 0.269 0.080 0.523 0.080 0.75v28.5z" />
</g>
<g transform="translate(384 0)">
	<path d="M19.5 6h4.5v3h-4.5zM15 9h4.5v3h-4.5zM19.5 12h4.5v3h-4.5zM15 15h4.5v3h-4.5zM19.5 18h4.5v3h-4.5zM15 21h4.5v3h-4.5zM19.5 24v3h-4.5v10.5c0 0.828 0.672 1.5 1.5 1.5h6c0.828 0 1.5-0.672 1.5-1.5v-13.5h-4.5zM22.5 36h-6v-3h6v3zM42.348 9.348l-6.697-6.697c-1.458-1.458-4.339-2.652-6.402-2.652h-22.5c-2.063 0-3.75 1.688-3.75 3.75v40.5c0 2.063 1.688 3.75 3.75 3.75h34.5c2.063 0 3.75-1.688 3.75-3.75v-28.5c0-2.063-1.193-4.943-2.652-6.402zM40.227 11.47c0.147 0.147 0.293 0.327 0.435 0.53h-7.662v-7.662c0.203 0.142 0.384 0.288 0.53 0.435l6.697 6.697zM42 44.25c0 0.407-0.343 0.75-0.75 0.75h-34.5c-0.406 0-0.75-0.343-0.75-0.75v-40.5c0-0.406 0.344-0.75 0.75-0.75h22.5c0.227 0 0.481 0.029 0.75 0.080v11.92h11.92c0.051 0.269 0.080 0.523 0.080 0.75v28.5z" />
</g>
<g transform="translate(448 0)">
	<path d="M21 27l-3-3-9 9 9 9 3-3-6-6zM27 39l3 3 9-9-9-9-3 3 6 6zM42.348 9.348l-6.697-6.697c-1.458-1.458-4.339-2.652-6.402-2.652h-22.5c-2.063 0-3.75 1.688-3.75 3.75v40.5c0 2.063 1.688 3.75 3.75 3.75h34.5c2.063 0 3.75-1.688 3.75-3.75v-28.5c0-2.063-1.193-4.943-2.652-6.402zM40.227 11.47c0.147 0.147 0.293 0.327 0.435 0.53h-7.662v-7.662c0.203 0.142 0.384 0.288 0.53 0.435l6.697 6.697zM42 44.25c0 0.407-0.343 0.75-0.75 0.75h-34.5c-0.406 0-0.75-0.343-0.75-0.75v-40.5c0-0.406 0.344-0.75 0.75-0.75h22.5c0.227 0 0.481 0.029 0.75 0.080v11.92h11.92c0.051 0.269 0.080 0.523 0.080 0.75v28.5z" />
</g>
<g transform="translate(512 0)">
	<path d="M18 28.662v-5.354c0-0.709 0.314-1.38 0.884-1.888 0.57-0.509 1.322-0.789 2.116-0.789v-2.677c-3.3 0-6 2.409-6 5.354v4.016c0 0.739-0.672 1.339-1.5 1.339h-1.5v2.677h1.5c0.828 0 1.5 0.6 1.5 1.339v4.016c0 2.944 2.7 5.354 6 5.354v-2.677c-0.795 0-1.546-0.28-2.116-0.789-0.57-0.509-0.884-1.179-0.884-1.888v-5.355c0-0.739-0.672-1.338-1.5-1.338 0.828 0 1.5-0.599 1.5-1.338zM30 31.338v5.355c0 0.709-0.314 1.379-0.884 1.888-0.57 0.509-1.321 0.789-2.116 0.789v2.677c3.3 0 6-2.409 6-5.354v-4.016c0-0.739 0.672-1.339 1.5-1.339h1.5v-2.677h-1.5c-0.828 0-1.5-0.6-1.5-1.339v-4.016c0-2.945-2.7-5.354-6-5.354v2.677c0.795 0 1.546 0.28 2.116 0.789 0.57 0.508 0.884 1.179 0.884 1.888v5.354c0 0.739 0.672 1.338 1.5 1.338-0.828-0-1.5 0.599-1.5 1.338zM42.348 9.348l-6.697-6.697c-1.458-1.458-4.339-2.652-6.402-2.652h-22.5c-2.063 0-3.75 1.688-3.75 3.75v40.5c0 2.063 1.688 3.75 3.75 3.75h34.5c2.063 0 3.75-1.688 3.75-3.75v-28.5c0-2.063-1.193-4.943-2.652-6.402zM40.227 11.47c0.147 0.147 0.293 0.327 0.435 0.53h-7.662v-7.662c0.203 0.142 0.384 0.288 0.53 0.435l6.697 6.697zM42 44.25c0 0.407-0.343 0.75-0.75 0.75h-34.5c-0.406 0-0.75-0.343-0.75-0.75v-40.5c0-0.406 0.344-0.75 0.75-0.75h22.5c0.227 0 0.481 0.029 0.75 0.080v11.92h11.92c0.051 0.269 0.080 0.523 0.080 0.75v28.5z" />
</g>
<g transform="translate(576 0)">
	<path d="M0 9v30h48v-30h-48zM41.5 12l-17.5 13.125-17.5-13.125h35zM3 36v-22.875l21 15.75 21-15.75v22.875h-42z" />
</g>
<g transform="translate(640 0)">
	<path d="M24 0c-13.255 0-24 10.745-24 24s10.745 24 24 24 24-10.745 24-24-10.745-24-24-24zM24 42c-2.485 0-4.5-2.015-4.5-4.5s2.015-4.5 4.5-4.5 4.5 2.015 4.5 4.5-2.015 4.5-4.5 4.5zM34.506 16.596c-0.234 0.792-0.558 1.543-0.976 2.251-0.417 0.709-0.918 1.381-1.502 2.013-0.584 0.635-1.224 1.244-1.926 1.827-0.784 0.65-1.414 1.226-1.889 1.727-0.474 0.499-0.796 0.934-0.963 1.3-0.313 0.673-0.549 2.284-0.252 4.286h-5.996c-0.049-3.557 0.474-5.297 1.096-6.587 0.634-1.302 1.817-2.677 3.552-4.128 0.751-0.616 1.335-1.163 1.751-1.639 0.417-0.475 0.735-0.9 0.951-1.275 0.216-0.375 0.35-0.725 0.4-1.051 0.050-0.324 0.074-0.662 0.074-1.012 0-0.65-0.112-1.25-0.338-1.8-0.225-0.552-0.546-1.025-0.962-1.425-0.418-0.401-0.909-0.714-1.476-0.939-0.567-0.225-1.2-0.338-1.901-0.338-2.734 0-4.402 1.91-5.003 5.729h-6.003c0.15-1.635 0.521-3.114 1.113-4.439 0.592-1.327 1.367-2.452 2.326-3.378 0.959-0.926 2.076-1.638 3.352-2.137 1.275-0.501 2.663-0.751 4.164-0.751 1.601 0 3.060 0.229 4.378 0.687 1.318 0.459 2.447 1.098 3.389 1.914 0.943 0.817 1.676 1.792 2.201 2.926 0.524 1.135 0.789 2.368 0.789 3.702-0 0.9-0.118 1.746-0.351 2.539z" />
</g>
<g transform="translate(704 0)">
	<path d="M47.221 39.254l-19.904-34.475c-1.824-3.16-4.81-3.16-6.635 0l-19.904 34.475c-1.825 3.16-0.332 5.746 3.317 5.746h39.808c3.649 0 5.142-2.586 3.317-5.746zM27.75 12l-0.75 18h-6l-0.75-18h7.5zM24 42c-2.485 0-4.5-2.015-4.5-4.5s2.015-4.5 4.5-4.5 4.5 2.015 4.5 4.5-2.015 4.5-4.5 4.5z" />
</g>
<g transform="translate(768 0)">
	<path d="M24 0c-13.255 0-24 10.745-24 24s10.745 24 24 24 24-10.745 24-24-10.745-24-24-24zM24 6c2.485 0 4.5 2.015 4.5 4.5s-2.015 4.5-4.5 4.5-4.5-2.015-4.5-4.5 2.015-4.5 4.5-4.5zM30 39h-12v-3h3v-15h-3v-3h9v18h3v3z" />
</g>
<g transform="translate(832 0)">
	<path d="M6.389 35.2c-3.525 0-6.389 2.875-6.389 6.379 0 3.523 2.864 6.366 6.389 6.366 3.537 0 6.398-2.843 6.398-6.366-0-3.504-2.861-6.379-6.398-6.379zM0.007 16.309v9.2c5.99 0 11.623 2.342 15.865 6.587 4.237 4.234 6.576 9.892 6.576 15.905h9.24c-0-17.476-14.216-31.691-31.681-31.691zM0.018 0v9.204c21.365 0 38.754 17.406 38.754 38.796h9.228c0-26.46-21.528-48-47.982-48z" />
</g>
<g transform="translate(896 0)">
	<path d="M25.061 1.061c-0.583-0.583-1.736-1.061-2.561-1.061h-18c-0.825 0-1.5 0.675-1.5 1.5v45c0 0.825 0.675 1.5 1.5 1.5h36c0.825 0 1.5-0.675 1.5-1.5v-27c0-0.825-0.477-1.977-1.061-2.561l-15.879-15.879zM39 45h-33v-42h16.461c0.137 0.022 0.394 0.129 0.507 0.21l15.823 15.823c0.081 0.113 0.187 0.37 0.21 0.507v25.461zM40.5 0h-9c-0.825 0-1.023 0.477-0.439 1.061l9.879 9.879c0.583 0.583 1.061 0.386 1.061-0.439v-9c0-0.825-0.675-1.5-1.5-1.5z" />
</g>
<g transform="translate(960 0)">
	<path d="M33 0h-30v48h42v-36l-12-12zM42 45h-36v-42h27v9h9v33zM12 36h24v3h-24zM12 30h24v3h-24zM12 24h24v3h-24z" />
</g>
</svg>
